inDegrees=yes
DataType=double
version=3
OpenSimVersion=4.5-2023-11-26-efcdfd3eb
endheader
time	pelvis_tilt	pelvis_list	pelvis_rotation	pelvis_tx	pelvis_ty	pelvis_tz	hip_flexion_l	hip_adduction_l	hip_rotation_l	hip_flexion_r	hip_adduction_r	hip_rotation_r	lumbar_ext	lumbar_bend	lumbar_rota	knee_angle_l_beta	knee_angle_r_beta	knee_angle_l	knee_angle_r	ankle_angle_l	ankle_angle_r
1.6535	-0.1161167835027447	1.291173299132144	1.246370730141655	0.7924451353010292	0.8464312563192171	-0.2136923914383938	2.582203188602957	2.990216654249461	0.7796488539115398	21.66714005763492	1.51661395855361	-8.733684870695196	-5.082182470136908	-0.5497308272879351	1.350988699803045	1.004310565236274	0.43135561401366	-57.54275670843664	-24.71485615225691	-14.90247315974669	2.67370876036469
1.664	0.00109347989973449	1.197522358697152	0.8699687398852862	0.8041270017559418	0.8481611786655198	-0.211523208719893	4.427190805265399	2.825979708519862	0.7039086261165177	20.41543702446412	1.985711330054204	-8.265858725014626	-5.129238065837567	-0.6570432647620512	1.981358047688957	1.040053491243086	0.4258636885355957	-59.59067551607536	-24.40019200096345	-15.07827541323485	3.102567664653026
1.6745	0.112245087469618	1.103895418255959	0.4836182338319475	0.8154919136508141	0.8499177854463618	-0.2094079490107848	6.29391119894461	2.665626637532327	0.6607676979525958	19.12548718834174	2.438454123524612	-7.785525818163356	-5.217981531449589	-0.7587761918512551	2.635429144964106	1.070249797916988	0.418488472539864	-61.32079644537266	-23.97762325141065	-14.97439829973825	3.513995544780371
1.685	0.2119837911100393	1.00750748992157	0.09056036928891696	0.8265647864036001	0.8516648493898692	-0.2073627718535465	8.163342180760843	2.505108147797926	0.6441851109449558	17.81928767867309	2.8800378288202	-7.27754797400215	-5.340051230215781	-0.8478992376742203	3.302204270324431	1.09439266000016	0.4094920621995072	-62.70408054810483	-23.46216690814036	-14.65618824449662	3.925038566430853
1.6955	0.2936335222330587	0.903588792284693	-0.3025689681639647	0.8373815708365836	0.8533655446556729	-0.2054097652582044	10.01873421734555	2.339879153861102	0.6510518482887989	16.51718348959563	3.316096572634119	-6.727314262396851	-5.482651704701227	-0.9144928248215275	3.966807366433727	1.112046780818723	0.3991654985221485	-63.71558716202254	-22.87049839255461	-14.20410087004979	4.297871192455196
1.706	0.3577956278668564	0.7866082073998376	-0.6873610481593463	0.8479726665043694	0.8549960280867294	-0.2035661015931974	11.84751961299291	2.160558609059317	0.6810927419026173	15.21886566606207	3.748396860086478	-6.131662319239281	-5.642847580107792	-0.9500550021552693	4.620102220721431	1.122884887744948	0.3877503495807635	-64.33656494680673	-22.21645853570002	-13.61992462658975	4.644644286344816
1.7165	0.4060435396250426	0.6516801800252308	-1.057614120777612	0.8583680530378547	0.8565323052614779	-0.2018439143362703	13.6363352274883	1.957758309202965	0.7331659393085612	13.92205507431942	4.176321729209225	-5.497337614835694	-5.818809604687257	-0.9477167532673519	5.257015089639115	1.126631852995422	0.3754904293243476	-64.55125024164107	-21.51401684784044	-12.90055409354695	4.98707167731527
1.727	0.4383156819793235	0.4964323711823308	-1.412797657668055	0.8686011633951499	0.8579435120933576	-0.2002466821059429	15.36439584508521	1.726098859922663	0.8053113352605487	12.63416508124161	4.592701686551685	-4.877619117889858	-6.005412685267234	-0.9043800833440779	5.877970743440734	1.123211312516813	0.3626450784745107	-64.35526770856312	-20.77803245778	-12.07822641122489	5.314151916300711
1.7375	0.4532898936112439	0.3206024719761342	-1.755069890927904	0.8786989971455546	0.8591960392875028	-0.1987691388005485	17.01268881793806	1.463110190596727	0.8928622315770308	11.36688635995679	4.993762501058964	-4.308954382846604	-6.19709148694631	-0.8204729057165355	6.484975861415691	1.112622874069459	0.3494822491983181	-63.74859487389568	-20.02385789380293	-11.18677710355101	5.618790069737564
1.748	0.4465620483510032	0.1268687153622235	-2.084088704094526	0.8886609358632157	0.8602525928109538	-0.1973939324548757	18.57738291045591	1.173573172008678	0.9895723683770312	10.13604449956739	5.390932587467968	-3.750047963803018	-6.390346704963211	-0.7024383258888668	7.073723496827131	1.094945722735387	0.3362016024132706	-62.7357687086393	-19.26293288381572	-10.24476763607046	5.924940588193629
1.7585	0.4142313285100843	-0.08390905098057046	-2.394630029639132	0.8984869316458995	0.8610794561625433	-0.1961125529756823	20.05743697055991	0.8609087731387927	1.092333911081563	8.954340141196445	5.793570795850428	-3.18044921391636	-6.582099441942582	-0.5539005954280503	7.635702033457931	1.070320128944378	0.3230018766581472	-61.32482611641093	-18.50664430731701	-9.271028822845674	6.222017917456821
1.769	0.3582303581912984	-0.3139489942144155	-2.680432446249855	0.908209670589585	0.8616569924052789	-0.1949372393542633	21.44379196031068	0.519773231038308	1.19700025944039	7.814319162004367	6.193826456370246	-2.648400177413941	-6.769134863717339	-0.3710590538309586	8.166989052500915	1.039043417299041	0.3100234787885466	-59.53280254208544	-17.76303688454732	-8.289389988457224	6.519847101589982
1.7795	0.2813570447520348	-0.5643152762590967	-2.940166723875283	0.917862811418339	0.8619671713969114	-0.1938710360045898	22.72615207091376	0.1447722810994362	1.294836204760104	6.707964120026098	6.584902576540653	-2.181650960804182	-6.948897386919917	-0.1523176999871519	8.668928736487192	1.001470469917303	0.2974197662908152	-57.38003123324473	-17.04089735223102	-7.321959160349866	6.828201732798488
1.79	0.184165660138953	-0.8330048193447408	-3.173996651649405	0.9274510531055358	0.8619870898532825	-0.1928893659474117	23.90137480766554	-0.2605081084372899	1.377578830829785	5.641959021494138	6.97504146943248	-1.761638325187225	-7.122027499542009	0.09454250071205052	9.140641265663696	0.9580826257002544	0.2853456044625415	-54.89409087743675	-16.34909883831298	-6.38567069574402	7.133575672946975
1.8005	0.06710548757957895	-1.11756338699967	-3.37938533930489	0.9369781653861579	0.8616945368686771	-0.191969853663062	24.96882120704564	-0.6899989044667003	1.439235600393844	4.623207673651439	7.372358528533643	-1.380105097744593	-7.28914074754096	0.3610276114392815	9.577731795984011	0.9094301896077924	0.273910705173363	-52.10651162630872	-15.69392736988591	-5.496875770435438	7.447589038984852
1.811	-0.06787130288821548	-1.414968606105551	-3.555681568209358	0.9464712463441521	0.861075161725384	-0.1911047114530793	25.92813868891893	-1.138943811083091	1.472168815916717	3.649339809930283	7.774847256984208	-1.037814291713838	-7.447398516039488	0.6419837151100097	9.977878762445391	0.8561977482480533	0.2632135382611111	-49.05651740321803	-15.08102485306688	-4.667622168828853	7.788822611703099
1.8215	-0.218511145290963	-1.723248709394	-3.704081013462815	0.9559642245782082	0.8601183493487871	-0.1902887098717046	26.77932208809461	-1.604323606848199	1.468156906851079	2.71648291936775	8.180001839323962	-0.7321304814216747	-7.592880671162106	0.9347748886279404	10.3405782964589	0.7991385466766207	0.2533726527692994	-45.7872659707887	-14.51718364771454	-3.907439606568782	8.140832810499449
1.832	-0.3834317551271348	-2.042277924954851	-3.82551522743422	0.9654962740009231	0.8588163476998759	-0.1895226620480573	27.52480846863691	-2.082961886375504	1.423672751400469	1.820892911731687	8.587184828533799	-0.4604641348489279	-7.719718483342555	1.240739344023353	10.66432275357825	0.7391308387566971	0.2444429937064032	-42.34907756872332	-14.00555187091985	-3.221266691068808	8.503390536255997
1.8425	-0.561354523195477	-2.371750852819718	-3.920348066138299	0.9751097918257404	0.8571625890795853	-0.1888103855538864	28.16821245032484	-2.56957441953847	1.337945922124353	0.9583674065270078	8.996266422278181	-0.2171783778288959	-7.821178696782074	1.561700661857657	10.94662670957662	0.6771148495612562	0.2364607020237273	-38.79582312549564	-13.54820024666014	-2.61172830587876	8.895875100796651
1.853	-0.7503154810324028	-2.711884427262308	-3.985546981364385	0.9848539651070054	0.8551555256793365	-0.188161691768769	28.71433947784353	-3.055102727186059	1.21285132511649	0.1244783374378068	9.411095728185414	0.01639808036408988	-7.88942207569749	1.900939315977439	11.18114990813051	0.614117873475106	0.2294939778215724	-35.18636227367266	-13.14903635284502	-2.077920793254219	9.310496365757237
